<svg width="44" height="45" viewBox="0 0 44 45" fill="none" xmlns="http://www.w3.org/2000/svg">
<rect y="0.5" width="44" height="44" rx="22" fill="white"/>
<path d="M19.86 28.5C19.7229 28.4996 19.5873 28.4709 19.4617 28.4159C19.3362 28.3608 19.2232 28.2805 19.13 28.18L14.27 23.01C14.0883 22.8164 13.991 22.5585 13.9994 22.2932C14.0079 22.0278 14.1214 21.7767 14.315 21.595C14.5086 21.4133 14.7665 21.316 15.0318 21.3244C15.2972 21.3329 15.5483 21.4464 15.73 21.64L19.85 26.03L28.26 16.83C28.3453 16.7237 28.4515 16.636 28.572 16.5723C28.6925 16.5085 28.8247 16.4701 28.9606 16.4593C29.0965 16.4485 29.2331 16.4656 29.3621 16.5096C29.4912 16.5535 29.6098 16.6234 29.7109 16.7148C29.8119 16.8063 29.8932 16.9175 29.9497 17.0415C30.0062 17.1656 30.0368 17.2999 30.0395 17.4361C30.0422 17.5724 30.0171 17.7078 29.9656 17.834C29.9141 17.9602 29.8373 18.0745 29.74 18.17L20.6 28.17C20.5076 28.2724 20.3951 28.3545 20.2695 28.4113C20.1439 28.4681 20.0078 28.4983 19.87 28.5H19.86Z" fill="#004F99"/>
<rect x="0.5" y="1" width="43" height="43" rx="21.5" stroke="#A2ADE8" stroke-opacity="0.4"/>
</svg>
