<svg width="14" height="14" viewBox="0 0 14 14" fill="none" xmlns="http://www.w3.org/2000/svg">
<path d="M13 2.99998H9.66666V1.88665C9.65102 1.45986 9.4668 1.05669 9.15438 0.765511C8.84195 0.474334 8.42683 0.318912 7.99999 0.333316H5.99999C5.57316 0.318912 5.15804 0.474334 4.84561 0.765511C4.53319 1.05669 4.34897 1.45986 4.33333 1.88665V2.99998H0.999995C0.823184 2.99998 0.653615 3.07022 0.52859 3.19525C0.403566 3.32027 0.333328 3.48984 0.333328 3.66665C0.333328 3.84346 0.403566 4.01303 0.52859 4.13805C0.653615 4.26308 0.823184 4.33332 0.999995 4.33332H1.66666V11.6666C1.66666 12.1971 1.87738 12.7058 2.25245 13.0809C2.62752 13.4559 3.13623 13.6666 3.66666 13.6666H10.3333C10.8638 13.6666 11.3725 13.4559 11.7475 13.0809C12.1226 12.7058 12.3333 12.1971 12.3333 11.6666V4.33332H13C13.1768 4.33332 13.3464 4.26308 13.4714 4.13805C13.5964 4.01303 13.6667 3.84346 13.6667 3.66665C13.6667 3.48984 13.5964 3.32027 13.4714 3.19525C13.3464 3.07022 13.1768 2.99998 13 2.99998ZM5.66666 1.88665C5.66666 1.77998 5.80666 1.66665 5.99999 1.66665H7.99999C8.19333 1.66665 8.33333 1.77998 8.33333 1.88665V2.99998H5.66666V1.88665Z" fill="#5580A9"/>
</svg>
